<svg width="62" height="61" viewBox="0 0 62 61" fill="none" xmlns="http://www.w3.org/2000/svg">
<g id="Frame">
<g id="Group">
<path id="Vector" d="M50.4474 26.134H50.3198C49.2394 16.4275 40.9875 8.84766 31.0002 8.84766C21.0129 8.84766 12.7611 16.4275 11.6807 26.134H11.5531C10.3621 26.134 9.39227 27.1038 9.39227 28.2948V41.2596C9.39227 42.4506 10.3621 43.4204 11.5531 43.4204H15.8747C17.0657 43.4204 18.0355 42.4506 18.0355 41.2596V28.2948C18.0355 27.1634 17.1507 26.2616 16.0448 26.1681C17.0827 18.835 23.3864 13.1692 31.0002 13.1692C38.6141 13.1692 44.9178 18.835 45.9557 26.1681C44.8412 26.2616 43.965 27.1634 43.965 28.2948V41.2596C43.965 42.4506 44.9348 43.4204 46.1258 43.4204H46.1428V45.5812C46.1428 46.7722 45.173 47.742 43.982 47.742H31.0002C29.8092 47.742 28.8394 48.7118 28.8394 49.9028C28.8394 51.0938 29.8092 52.0636 31.0002 52.0636H43.982C47.555 52.0636 50.4644 49.1542 50.4644 45.5812V43.4204C51.6469 43.4119 52.6082 42.4506 52.6082 41.2596V28.2948C52.6082 27.1038 51.6384 26.134 50.4474 26.134Z" fill="#2A1F1B"/>
</g>
</g>
</svg>
