<svg width="62" height="61" viewBox="0 0 62 61" fill="none" xmlns="http://www.w3.org/2000/svg">
<g id="Frame">
<path id="Vector" d="M31.1001 12.4766C21.1224 12.4766 13.0334 20.5656 13.0334 30.5433C13.0334 40.521 21.1224 48.61 31.1001 48.61C41.0778 48.61 49.1668 40.521 49.1668 30.5433C49.1668 20.5656 41.0778 12.4766 31.1001 12.4766ZM38.6367 33.5361C38.3699 38.1383 35.878 40.8455 34.8455 40.8045C33.8129 40.7628 30.7339 40.5349 28.668 40.4168C26.5362 40.2952 24.3647 38.845 24.3647 38.845L22.8763 30.3161C25.965 25.5548 28.0906 24.598 28.9668 19.4274C28.9668 19.4274 31.3544 19.2655 31.7171 21.947C31.9548 23.705 30.8666 26.973 30.8666 26.973H36.2609C37.5763 26.973 38.6436 28.0355 38.6485 29.3502C38.6562 31.0658 38.6596 33.147 38.6367 33.5361Z" fill="#2A1F1B"/>
</g>
</svg>
