<svg width="62" height="61" viewBox="0 0 62 61" fill="none" xmlns="http://www.w3.org/2000/svg">
<g id="Frame">
<path id="Vector" d="M25.7315 49.1098C25.5981 49.1098 25.4613 49.0798 25.3345 49.0131C24.9709 48.8196 24.7975 48.3993 24.9176 48.009L29.2042 33.9583H20.2407C19.9104 33.9583 19.6135 33.7681 19.4701 33.4746C19.33 33.1777 19.37 32.8274 19.5735 32.5706L35.8425 12.2918C36.0994 11.9749 36.5397 11.8815 36.9 12.0683C37.2636 12.2551 37.4404 12.6687 37.3303 13.059L33.3306 27.1264H41.9605C42.2875 27.1264 42.5877 27.3132 42.7278 27.6101C42.8712 27.907 42.8312 28.2573 42.6277 28.5141L26.3987 48.7896C26.2319 48.9997 25.985 49.1098 25.7315 49.1098Z" fill="#2A1F1B"/>
</g>
</svg>
